<mxfile host="drawio-plugin" modified="2021-12-27T12:48:31.302Z" agent="5.0 (Windows NT 6.2; Win64; x64) AppleWebKit/537.36 (KHTML, like Gecko) Chrome/89.0.4389.114 Safari/537.36" etag="GdFyqXrj3mDeK64o3fWK" version="14.7.4" type="embed"><diagram id="LJFk7vIdHBP3qsd5WtaS" name="Page-1"><mxGraphModel dx="739" dy="384" grid="1" gridSize="10" guides="1" tooltips="1" connect="1" arrows="1" fold="1" page="1" pageScale="1" pageWidth="850" pageHeight="1100" math="0" shadow="0"><root><mxCell id="0"/><mxCell id="1" parent="0"/><mxCell id="9UM9cpGr8_4hgZ6bG0Q0-3" value="хочет посмотреть доступные распорядки" style="edgeStyle=orthogonalEdgeStyle;rounded=0;orthogonalLoop=1;jettySize=auto;html=1;" parent="1" source="9UM9cpGr8_4hgZ6bG0Q0-1" target="9UM9cpGr8_4hgZ6bG0Q0-2" edge="1"><mxGeometry relative="1" as="geometry"/></mxCell><mxCell id="9UM9cpGr8_4hgZ6bG0Q0-7" value="" style="edgeStyle=orthogonalEdgeStyle;rounded=0;orthogonalLoop=1;jettySize=auto;html=1;" parent="1" source="9UM9cpGr8_4hgZ6bG0Q0-1" target="9UM9cpGr8_4hgZ6bG0Q0-6" edge="1"><mxGeometry x="-0.1111" y="20" relative="1" as="geometry"><mxPoint as="offset"/></mxGeometry></mxCell><mxCell id="9UM9cpGr8_4hgZ6bG0Q0-1" value="Начальная страница" style="rounded=0;whiteSpace=wrap;html=1;fillColor=#ffe6cc;strokeColor=#d79b00;" parent="1" vertex="1"><mxGeometry x="340" y="30" width="120" height="60" as="geometry"/></mxCell><mxCell id="9UM9cpGr8_4hgZ6bG0Q0-2" value="Страница списка упражнений" style="whiteSpace=wrap;html=1;rounded=0;fillColor=#ffe6cc;strokeColor=#d79b00;" parent="1" vertex="1"><mxGeometry x="670" y="30" width="120" height="60" as="geometry"/></mxCell><mxCell id="9UM9cpGr8_4hgZ6bG0Q0-11" value="" style="edgeStyle=orthogonalEdgeStyle;rounded=0;orthogonalLoop=1;jettySize=auto;html=1;exitX=0.5;exitY=1;exitDx=0;exitDy=0;" parent="1" source="9UM9cpGr8_4hgZ6bG0Q0-4" target="9UM9cpGr8_4hgZ6bG0Q0-8" edge="1"><mxGeometry relative="1" as="geometry"><Array as="points"><mxPoint x="400" y="370"/><mxPoint x="400" y="370"/></Array></mxGeometry></mxCell><mxCell id="9UM9cpGr8_4hgZ6bG0Q0-4" value="Страница входа" style="whiteSpace=wrap;html=1;rounded=0;fillColor=#ffe6cc;strokeColor=#d79b00;" parent="1" vertex="1"><mxGeometry x="340" y="250" width="120" height="60" as="geometry"/></mxCell><mxCell id="9UM9cpGr8_4hgZ6bG0Q0-9" value="Да" style="edgeStyle=orthogonalEdgeStyle;rounded=0;orthogonalLoop=1;jettySize=auto;html=1;entryX=0.5;entryY=0;entryDx=0;entryDy=0;" parent="1" source="9UM9cpGr8_4hgZ6bG0Q0-6" target="9UM9cpGr8_4hgZ6bG0Q0-4" edge="1"><mxGeometry relative="1" as="geometry"/></mxCell><mxCell id="9UM9cpGr8_4hgZ6bG0Q0-13" value="Нет" style="edgeStyle=orthogonalEdgeStyle;rounded=0;orthogonalLoop=1;jettySize=auto;html=1;" parent="1" source="9UM9cpGr8_4hgZ6bG0Q0-6" target="9UM9cpGr8_4hgZ6bG0Q0-12" edge="1"><mxGeometry relative="1" as="geometry"/></mxCell><mxCell id="9UM9cpGr8_4hgZ6bG0Q0-6" value="&#10;&#10;&lt;span style=&quot;color: rgb(0, 0, 0); font-family: helvetica; font-size: 11px; font-style: normal; font-weight: 400; letter-spacing: normal; text-align: center; text-indent: 0px; text-transform: none; word-spacing: 0px; background-color: rgb(255, 255, 255); display: inline; float: none;&quot;&gt;уже есть аккаунт?&lt;/span&gt;&#10;&#10;" style="rhombus;whiteSpace=wrap;html=1;rounded=0;" parent="1" vertex="1"><mxGeometry x="355" y="130" width="90" height="80" as="geometry"/></mxCell><mxCell id="9UM9cpGr8_4hgZ6bG0Q0-18" value="Да" style="edgeStyle=orthogonalEdgeStyle;rounded=0;orthogonalLoop=1;jettySize=auto;html=1;" parent="1" source="9UM9cpGr8_4hgZ6bG0Q0-8" target="9UM9cpGr8_4hgZ6bG0Q0-17" edge="1"><mxGeometry relative="1" as="geometry"/></mxCell><mxCell id="9UM9cpGr8_4hgZ6bG0Q0-19" value="Нет" style="edgeStyle=orthogonalEdgeStyle;rounded=0;orthogonalLoop=1;jettySize=auto;html=1;exitX=1;exitY=0.5;exitDx=0;exitDy=0;entryX=1;entryY=0.5;entryDx=0;entryDy=0;" parent="1" source="9UM9cpGr8_4hgZ6bG0Q0-8" target="9UM9cpGr8_4hgZ6bG0Q0-4" edge="1"><mxGeometry relative="1" as="geometry"><mxPoint x="560" y="400" as="targetPoint"/><Array as="points"><mxPoint x="490" y="395"/><mxPoint x="490" y="280"/></Array></mxGeometry></mxCell><mxCell id="9UM9cpGr8_4hgZ6bG0Q0-8" value="Успешно авторизоваться ?" style="rhombus;whiteSpace=wrap;html=1;rounded=0;" parent="1" vertex="1"><mxGeometry x="335" y="340" width="130" height="110" as="geometry"/></mxCell><mxCell id="9UM9cpGr8_4hgZ6bG0Q0-21" value="" style="edgeStyle=orthogonalEdgeStyle;rounded=0;orthogonalLoop=1;jettySize=auto;html=1;" parent="1" source="9UM9cpGr8_4hgZ6bG0Q0-12" target="9UM9cpGr8_4hgZ6bG0Q0-20" edge="1"><mxGeometry relative="1" as="geometry"/></mxCell><mxCell id="9UM9cpGr8_4hgZ6bG0Q0-12" value="Страница регистрации" style="whiteSpace=wrap;html=1;rounded=0;fillColor=#ffe6cc;strokeColor=#d79b00;" parent="1" vertex="1"><mxGeometry x="550" y="140" width="120" height="60" as="geometry"/></mxCell><mxCell id="9UM9cpGr8_4hgZ6bG0Q0-17" value="Новости" style="whiteSpace=wrap;html=1;rounded=0;fillColor=#ffe6cc;strokeColor=#d79b00;" parent="1" vertex="1"><mxGeometry x="340" y="500" width="120" height="60" as="geometry"/></mxCell><mxCell id="9UM9cpGr8_4hgZ6bG0Q0-22" value="Нет" style="edgeStyle=orthogonalEdgeStyle;rounded=0;orthogonalLoop=1;jettySize=auto;html=1;exitX=1;exitY=0.5;exitDx=0;exitDy=0;entryX=1;entryY=0.5;entryDx=0;entryDy=0;" parent="1" source="9UM9cpGr8_4hgZ6bG0Q0-20" target="9UM9cpGr8_4hgZ6bG0Q0-12" edge="1"><mxGeometry relative="1" as="geometry"/></mxCell><mxCell id="9UM9cpGr8_4hgZ6bG0Q0-23" value="Да" style="edgeStyle=orthogonalEdgeStyle;rounded=0;orthogonalLoop=1;jettySize=auto;html=1;exitX=0.5;exitY=1;exitDx=0;exitDy=0;entryX=1;entryY=0.5;entryDx=0;entryDy=0;" parent="1" source="9UM9cpGr8_4hgZ6bG0Q0-20" target="9UM9cpGr8_4hgZ6bG0Q0-17" edge="1"><mxGeometry x="-0.2727" relative="1" as="geometry"><mxPoint as="offset"/></mxGeometry></mxCell><mxCell id="9UM9cpGr8_4hgZ6bG0Q0-20" value="Успешно регистрации ?" style="rhombus;whiteSpace=wrap;html=1;rounded=0;" parent="1" vertex="1"><mxGeometry x="555" y="250" width="110" height="100" as="geometry"/></mxCell><mxCell id="9UM9cpGr8_4hgZ6bG0Q0-39" value="" style="edgeStyle=orthogonalEdgeStyle;rounded=0;orthogonalLoop=1;jettySize=auto;html=1;" parent="1" source="9UM9cpGr8_4hgZ6bG0Q0-36" target="9UM9cpGr8_4hgZ6bG0Q0-38" edge="1"><mxGeometry relative="1" as="geometry"/></mxCell><mxCell id="9UM9cpGr8_4hgZ6bG0Q0-36" value="Enter information in search bar" style="rhombus;whiteSpace=wrap;html=1;" parent="1" vertex="1"><mxGeometry x="5" y="650" width="130" height="100" as="geometry"/></mxCell><mxCell id="9UM9cpGr8_4hgZ6bG0Q0-37" value="хочет искать пользователя или распорядки" style="endArrow=classic;html=1;rounded=0;exitX=0.5;exitY=1;exitDx=0;exitDy=0;entryX=0.5;entryY=0;entryDx=0;entryDy=0;" parent="1" source="9UM9cpGr8_4hgZ6bG0Q0-17" target="9UM9cpGr8_4hgZ6bG0Q0-36" edge="1"><mxGeometry width="50" height="50" relative="1" as="geometry"><mxPoint x="400" y="600" as="sourcePoint"/><mxPoint x="450" y="550" as="targetPoint"/></mxGeometry></mxCell><mxCell id="9UM9cpGr8_4hgZ6bG0Q0-38" value="Страница результатов фильтра" style="whiteSpace=wrap;html=1;fillColor=#ffe6cc;strokeColor=#d79b00;" parent="1" vertex="1"><mxGeometry x="10" y="800" width="120" height="60" as="geometry"/></mxCell><mxCell id="9UM9cpGr8_4hgZ6bG0Q0-43" value="" style="edgeStyle=orthogonalEdgeStyle;rounded=0;orthogonalLoop=1;jettySize=auto;html=1;" parent="1" source="9UM9cpGr8_4hgZ6bG0Q0-41" target="9UM9cpGr8_4hgZ6bG0Q0-42" edge="1"><mxGeometry relative="1" as="geometry"/></mxCell><mxCell id="9UM9cpGr8_4hgZ6bG0Q0-41" value="Личная страница" style="rounded=0;whiteSpace=wrap;html=1;fillColor=#ffe6cc;strokeColor=#d79b00;" parent="1" vertex="1"><mxGeometry x="340" y="650" width="120" height="60" as="geometry"/></mxCell><mxCell id="9UM9cpGr8_4hgZ6bG0Q0-42" value="Насроить профиль или распорядки" style="rhombus;whiteSpace=wrap;html=1;rounded=0;" parent="1" vertex="1"><mxGeometry x="210" y="730" width="115" height="110" as="geometry"/></mxCell><mxCell id="9UM9cpGr8_4hgZ6bG0Q0-46" value="Страница для редактирования профиля" style="rounded=0;whiteSpace=wrap;html=1;fillColor=#ffe6cc;strokeColor=#d79b00;" parent="1" vertex="1"><mxGeometry x="130" y="950" width="120" height="60" as="geometry"/></mxCell><mxCell id="9UM9cpGr8_4hgZ6bG0Q0-49" value="настроить распорядок" style="edgeStyle=orthogonalEdgeStyle;rounded=0;orthogonalLoop=1;jettySize=auto;html=1;exitX=0.5;exitY=1;exitDx=0;exitDy=0;" parent="1" source="9UM9cpGr8_4hgZ6bG0Q0-47" target="9UM9cpGr8_4hgZ6bG0Q0-50" edge="1"><mxGeometry relative="1" as="geometry"><mxPoint x="490" y="1010" as="targetPoint"/></mxGeometry></mxCell><mxCell id="9UM9cpGr8_4hgZ6bG0Q0-47" value="Определённый распорядок" style="rounded=0;whiteSpace=wrap;html=1;fillColor=#ffe6cc;strokeColor=#d79b00;" parent="1" vertex="1"><mxGeometry x="425" y="860" width="120" height="60" as="geometry"/></mxCell><mxCell id="9UM9cpGr8_4hgZ6bG0Q0-50" value="Страница для редактирования распорядка" style="rounded=0;whiteSpace=wrap;html=1;fillColor=#ffe6cc;strokeColor=#d79b00;" parent="1" vertex="1"><mxGeometry x="425" y="990" width="120" height="60" as="geometry"/></mxCell><mxCell id="9UM9cpGr8_4hgZ6bG0Q0-51" value="Список упражнений" style="rounded=0;whiteSpace=wrap;html=1;fillColor=#ffe6cc;strokeColor=#d79b00;" parent="1" vertex="1"><mxGeometry x="520" y="650" width="120" height="60" as="geometry"/></mxCell><mxCell id="9UM9cpGr8_4hgZ6bG0Q0-52" value="Определённое упражнение" style="rounded=0;whiteSpace=wrap;html=1;fillColor=#ffe6cc;strokeColor=#d79b00;" parent="1" vertex="1"><mxGeometry x="520" y="765" width="120" height="60" as="geometry"/></mxCell><mxCell id="9UM9cpGr8_4hgZ6bG0Q0-54" value="&amp;nbsp;хочет взаимодействовать с другим пользователем" style="endArrow=classic;html=1;rounded=0;exitX=0.5;exitY=1;exitDx=0;exitDy=0;" parent="1" source="9UM9cpGr8_4hgZ6bG0Q0-17" target="9UM9cpGr8_4hgZ6bG0Q0-55" edge="1"><mxGeometry x="0.671" y="39" width="50" height="50" relative="1" as="geometry"><mxPoint x="400" y="770" as="sourcePoint"/><mxPoint x="780" y="640" as="targetPoint"/><mxPoint as="offset"/></mxGeometry></mxCell><mxCell id="9UM9cpGr8_4hgZ6bG0Q0-66" value="Взаимодействовать с распорядками" style="edgeStyle=orthogonalEdgeStyle;rounded=0;orthogonalLoop=1;jettySize=auto;html=1;" parent="1" source="9UM9cpGr8_4hgZ6bG0Q0-55" target="9UM9cpGr8_4hgZ6bG0Q0-65" edge="1"><mxGeometry relative="1" as="geometry"/></mxCell><mxCell id="9UM9cpGr8_4hgZ6bG0Q0-55" value="Личная страница другого пользователя" style="rounded=0;whiteSpace=wrap;html=1;fillColor=#ffe6cc;strokeColor=#d79b00;" parent="1" vertex="1"><mxGeometry x="710" y="640" width="120" height="60" as="geometry"/></mxCell><mxCell id="9UM9cpGr8_4hgZ6bG0Q0-57" value="Страницу отслеживания" style="whiteSpace=wrap;html=1;fillColor=#ffe6cc;strokeColor=#d79b00;rounded=0;" parent="1" vertex="1"><mxGeometry x="680" y="1000" width="120" height="60" as="geometry"/></mxCell><mxCell id="9UM9cpGr8_4hgZ6bG0Q0-59" value="хочет начать распорядок" style="endArrow=classic;html=1;rounded=0;exitX=1;exitY=1;exitDx=0;exitDy=0;entryX=0.25;entryY=0;entryDx=0;entryDy=0;" parent="1" source="9UM9cpGr8_4hgZ6bG0Q0-47" target="9UM9cpGr8_4hgZ6bG0Q0-57" edge="1"><mxGeometry x="-0.0766" y="14" width="50" height="50" relative="1" as="geometry"><mxPoint x="400" y="770" as="sourcePoint"/><mxPoint x="450" y="720" as="targetPoint"/><mxPoint y="1" as="offset"/></mxGeometry></mxCell><mxCell id="9UM9cpGr8_4hgZ6bG0Q0-60" value="профиль" style="endArrow=classic;html=1;rounded=0;exitX=0;exitY=1;exitDx=0;exitDy=0;entryX=0.5;entryY=0;entryDx=0;entryDy=0;" parent="1" source="9UM9cpGr8_4hgZ6bG0Q0-42" target="9UM9cpGr8_4hgZ6bG0Q0-46" edge="1"><mxGeometry width="50" height="50" relative="1" as="geometry"><mxPoint x="400" y="790" as="sourcePoint"/><mxPoint x="450" y="740" as="targetPoint"/></mxGeometry></mxCell><mxCell id="9UM9cpGr8_4hgZ6bG0Q0-61" value="распорядок" style="endArrow=classic;html=1;rounded=0;exitX=1;exitY=1;exitDx=0;exitDy=0;entryX=0;entryY=0.5;entryDx=0;entryDy=0;" parent="1" source="9UM9cpGr8_4hgZ6bG0Q0-42" target="9UM9cpGr8_4hgZ6bG0Q0-50" edge="1"><mxGeometry width="50" height="50" relative="1" as="geometry"><mxPoint x="400" y="790" as="sourcePoint"/><mxPoint x="450" y="740" as="targetPoint"/></mxGeometry></mxCell><mxCell id="9UM9cpGr8_4hgZ6bG0Q0-62" value="" style="endArrow=classic;startArrow=classic;html=1;rounded=0;exitX=0.5;exitY=0;exitDx=0;exitDy=0;entryX=0.5;entryY=1;entryDx=0;entryDy=0;" parent="1" source="9UM9cpGr8_4hgZ6bG0Q0-41" target="9UM9cpGr8_4hgZ6bG0Q0-17" edge="1"><mxGeometry width="50" height="50" relative="1" as="geometry"><mxPoint x="400" y="790" as="sourcePoint"/><mxPoint x="450" y="740" as="targetPoint"/></mxGeometry></mxCell><mxCell id="9UM9cpGr8_4hgZ6bG0Q0-63" value="Уведомления" style="rounded=0;whiteSpace=wrap;html=1;fillColor=#ffe6cc;strokeColor=#d79b00;" parent="1" vertex="1"><mxGeometry x="30" y="500" width="120" height="60" as="geometry"/></mxCell><mxCell id="9UM9cpGr8_4hgZ6bG0Q0-64" value="" style="endArrow=classic;startArrow=classic;html=1;rounded=0;exitX=1;exitY=0.5;exitDx=0;exitDy=0;entryX=0;entryY=0.5;entryDx=0;entryDy=0;" parent="1" source="9UM9cpGr8_4hgZ6bG0Q0-63" target="9UM9cpGr8_4hgZ6bG0Q0-17" edge="1"><mxGeometry width="50" height="50" relative="1" as="geometry"><mxPoint x="400" y="790" as="sourcePoint"/><mxPoint x="450" y="740" as="targetPoint"/></mxGeometry></mxCell><mxCell id="9UM9cpGr8_4hgZ6bG0Q0-65" value="Определённый распорядок у другой пользователя" style="whiteSpace=wrap;html=1;fillColor=#ffe6cc;strokeColor=#d79b00;rounded=0;" parent="1" vertex="1"><mxGeometry x="711" y="780" width="120" height="60" as="geometry"/></mxCell><mxCell id="9UM9cpGr8_4hgZ6bG0Q0-67" value="" style="endArrow=classic;startArrow=classic;html=1;rounded=0;entryX=0.5;entryY=1;entryDx=0;entryDy=0;exitX=0.5;exitY=0;exitDx=0;exitDy=0;" parent="1" source="9UM9cpGr8_4hgZ6bG0Q0-47" target="9UM9cpGr8_4hgZ6bG0Q0-41" edge="1"><mxGeometry width="50" height="50" relative="1" as="geometry"><mxPoint x="380" y="825" as="sourcePoint"/><mxPoint x="430" y="775" as="targetPoint"/><Array as="points"><mxPoint x="470" y="830"/></Array></mxGeometry></mxCell><mxCell id="9UM9cpGr8_4hgZ6bG0Q0-68" value="" style="endArrow=classic;startArrow=classic;html=1;rounded=0;exitX=0.5;exitY=1;exitDx=0;exitDy=0;entryX=0.5;entryY=0;entryDx=0;entryDy=0;" parent="1" source="9UM9cpGr8_4hgZ6bG0Q0-51" target="9UM9cpGr8_4hgZ6bG0Q0-52" edge="1"><mxGeometry width="50" height="50" relative="1" as="geometry"><mxPoint x="380" y="810" as="sourcePoint"/><mxPoint x="430" y="760" as="targetPoint"/></mxGeometry></mxCell><mxCell id="9UM9cpGr8_4hgZ6bG0Q0-69" value="" style="endArrow=classic;startArrow=classic;html=1;rounded=0;exitX=0.5;exitY=1;exitDx=0;exitDy=0;entryX=0.5;entryY=0;entryDx=0;entryDy=0;" parent="1" source="9UM9cpGr8_4hgZ6bG0Q0-17" target="9UM9cpGr8_4hgZ6bG0Q0-51" edge="1"><mxGeometry width="50" height="50" relative="1" as="geometry"><mxPoint x="380" y="810" as="sourcePoint"/><mxPoint x="430" y="760" as="targetPoint"/></mxGeometry></mxCell><mxCell id="9UM9cpGr8_4hgZ6bG0Q0-70" value="если вы администратор и хотите забанить пользователя" style="endArrow=classic;startArrow=classic;html=1;rounded=0;exitX=1;exitY=0.75;exitDx=0;exitDy=0;" parent="1" source="9UM9cpGr8_4hgZ6bG0Q0-17" target="9UM9cpGr8_4hgZ6bG0Q0-71" edge="1"><mxGeometry width="50" height="50" relative="1" as="geometry"><mxPoint x="380" y="710" as="sourcePoint"/><mxPoint x="830" y="545" as="targetPoint"/></mxGeometry></mxCell><mxCell id="9UM9cpGr8_4hgZ6bG0Q0-71" value="Личная страница других пользователей глазами администратора" style="rounded=0;whiteSpace=wrap;html=1;fillColor=#ffe6cc;strokeColor=#d79b00;" parent="1" vertex="1"><mxGeometry x="831" y="520" width="139" height="70" as="geometry"/></mxCell></root></mxGraphModel></diagram></mxfile>